<mxfile host="app.diagrams.net" modified="2023-03-14T08:56:22.835Z" agent="5.0 (Windows NT 10.0; Win64; x64) AppleWebKit/537.36 (KHTML, like Gecko) Chrome/111.0.0.0 Safari/537.36" etag="A-3IV9NKblaBdusIj8Mf" version="21.0.6" type="github">
  <diagram name="Page-1" id="5f0bae14-7c28-e335-631c-24af17079c00">
    <mxGraphModel dx="1434" dy="884" grid="1" gridSize="10" guides="1" tooltips="1" connect="1" arrows="1" fold="1" page="1" pageScale="1" pageWidth="1100" pageHeight="850" background="none" math="0" shadow="0">
      <root>
        <mxCell id="0" />
        <mxCell id="1" parent="0" />
        <mxCell id="vXhFPMX_ZpGUBwA_U3QO-18" value="«Portal»&lt;br&gt;&lt;b&gt;门户构件&lt;/b&gt;" style="html=1;dropTarget=0;whiteSpace=wrap;" vertex="1" parent="1">
          <mxGeometry x="150" y="180" width="180" height="90" as="geometry" />
        </mxCell>
        <mxCell id="vXhFPMX_ZpGUBwA_U3QO-19" value="" style="shape=module;jettyWidth=8;jettyHeight=4;" vertex="1" parent="vXhFPMX_ZpGUBwA_U3QO-18">
          <mxGeometry x="1" width="20" height="20" relative="1" as="geometry">
            <mxPoint x="-27" y="7" as="offset" />
          </mxGeometry>
        </mxCell>
        <mxCell id="vXhFPMX_ZpGUBwA_U3QO-20" value="" style="rounded=0;orthogonalLoop=1;jettySize=auto;html=1;endArrow=none;endFill=0;sketch=0;sourcePerimeterSpacing=0;targetPerimeterSpacing=0;exitX=0;exitY=0.5;exitDx=0;exitDy=0;" edge="1" target="vXhFPMX_ZpGUBwA_U3QO-22" parent="1" source="vXhFPMX_ZpGUBwA_U3QO-25">
          <mxGeometry relative="1" as="geometry">
            <mxPoint x="510" y="120" as="sourcePoint" />
            <Array as="points">
              <mxPoint x="440" y="140" />
            </Array>
          </mxGeometry>
        </mxCell>
        <mxCell id="vXhFPMX_ZpGUBwA_U3QO-21" value="" style="rounded=0;orthogonalLoop=1;jettySize=auto;html=1;endArrow=halfCircle;endFill=0;entryX=0.5;entryY=0.5;endSize=6;strokeWidth=1;sketch=0;exitX=1;exitY=0.25;exitDx=0;exitDy=0;" edge="1" target="vXhFPMX_ZpGUBwA_U3QO-22" parent="1" source="vXhFPMX_ZpGUBwA_U3QO-18">
          <mxGeometry relative="1" as="geometry">
            <mxPoint x="471" y="140" as="sourcePoint" />
          </mxGeometry>
        </mxCell>
        <mxCell id="vXhFPMX_ZpGUBwA_U3QO-22" value="" style="ellipse;whiteSpace=wrap;html=1;align=center;aspect=fixed;resizable=0;points=[];outlineConnect=0;sketch=0;" vertex="1" parent="1">
          <mxGeometry x="420" y="140" width="10" height="10" as="geometry" />
        </mxCell>
        <mxCell id="vXhFPMX_ZpGUBwA_U3QO-25" value="«Auth»&lt;br&gt;&lt;b&gt;身份验证构件&lt;/b&gt;" style="html=1;dropTarget=0;whiteSpace=wrap;" vertex="1" parent="1">
          <mxGeometry x="500" y="70" width="180" height="90" as="geometry" />
        </mxCell>
        <mxCell id="vXhFPMX_ZpGUBwA_U3QO-26" value="" style="shape=module;jettyWidth=8;jettyHeight=4;" vertex="1" parent="vXhFPMX_ZpGUBwA_U3QO-25">
          <mxGeometry x="1" width="20" height="20" relative="1" as="geometry">
            <mxPoint x="-27" y="7" as="offset" />
          </mxGeometry>
        </mxCell>
        <mxCell id="vXhFPMX_ZpGUBwA_U3QO-28" value="getToken(cred)" style="text;strokeColor=none;align=center;fillColor=none;html=1;verticalAlign=middle;whiteSpace=wrap;rounded=0;" vertex="1" parent="1">
          <mxGeometry x="360" y="110" width="100" height="30" as="geometry" />
        </mxCell>
        <mxCell id="vXhFPMX_ZpGUBwA_U3QO-29" value="«Proc»&lt;br&gt;&lt;b&gt;业务处理构件&lt;/b&gt;" style="html=1;dropTarget=0;whiteSpace=wrap;" vertex="1" parent="1">
          <mxGeometry x="410" y="320" width="180" height="90" as="geometry" />
        </mxCell>
        <mxCell id="vXhFPMX_ZpGUBwA_U3QO-30" value="" style="shape=module;jettyWidth=8;jettyHeight=4;" vertex="1" parent="vXhFPMX_ZpGUBwA_U3QO-29">
          <mxGeometry x="1" width="20" height="20" relative="1" as="geometry">
            <mxPoint x="-27" y="7" as="offset" />
          </mxGeometry>
        </mxCell>
        <mxCell id="vXhFPMX_ZpGUBwA_U3QO-31" value="" style="rounded=0;orthogonalLoop=1;jettySize=auto;html=1;endArrow=none;endFill=0;sketch=0;sourcePerimeterSpacing=0;targetPerimeterSpacing=0;exitX=0.25;exitY=0;exitDx=0;exitDy=0;" edge="1" target="vXhFPMX_ZpGUBwA_U3QO-33" parent="1" source="vXhFPMX_ZpGUBwA_U3QO-29">
          <mxGeometry relative="1" as="geometry">
            <mxPoint x="450" y="425" as="sourcePoint" />
          </mxGeometry>
        </mxCell>
        <mxCell id="vXhFPMX_ZpGUBwA_U3QO-32" value="" style="rounded=0;orthogonalLoop=1;jettySize=auto;html=1;endArrow=halfCircle;endFill=0;entryX=0.5;entryY=0.5;endSize=6;strokeWidth=1;sketch=0;exitX=1.006;exitY=0.656;exitDx=0;exitDy=0;exitPerimeter=0;" edge="1" target="vXhFPMX_ZpGUBwA_U3QO-33" parent="1" source="vXhFPMX_ZpGUBwA_U3QO-18">
          <mxGeometry relative="1" as="geometry">
            <mxPoint x="420" y="210" as="sourcePoint" />
          </mxGeometry>
        </mxCell>
        <mxCell id="vXhFPMX_ZpGUBwA_U3QO-33" value="" style="ellipse;whiteSpace=wrap;html=1;align=center;aspect=fixed;resizable=0;points=[];outlineConnect=0;sketch=0;" vertex="1" parent="1">
          <mxGeometry x="380" y="270" width="10" height="10" as="geometry" />
        </mxCell>
        <mxCell id="vXhFPMX_ZpGUBwA_U3QO-34" value="process(token,data)" style="text;strokeColor=none;align=center;fillColor=none;html=1;verticalAlign=middle;whiteSpace=wrap;rounded=0;" vertex="1" parent="1">
          <mxGeometry x="360" y="240" width="130" height="30" as="geometry" />
        </mxCell>
        <mxCell id="vXhFPMX_ZpGUBwA_U3QO-37" value="" style="rounded=0;orthogonalLoop=1;jettySize=auto;html=1;endArrow=none;endFill=0;sketch=0;sourcePerimeterSpacing=0;targetPerimeterSpacing=0;exitX=0.5;exitY=1;exitDx=0;exitDy=0;" edge="1" target="vXhFPMX_ZpGUBwA_U3QO-39" parent="1" source="vXhFPMX_ZpGUBwA_U3QO-25">
          <mxGeometry relative="1" as="geometry">
            <mxPoint x="450" y="425" as="sourcePoint" />
          </mxGeometry>
        </mxCell>
        <mxCell id="vXhFPMX_ZpGUBwA_U3QO-38" value="" style="rounded=0;orthogonalLoop=1;jettySize=auto;html=1;endArrow=halfCircle;endFill=0;entryX=0.5;entryY=0.5;endSize=6;strokeWidth=1;sketch=0;exitX=0.5;exitY=0;exitDx=0;exitDy=0;" edge="1" target="vXhFPMX_ZpGUBwA_U3QO-39" parent="1" source="vXhFPMX_ZpGUBwA_U3QO-29">
          <mxGeometry relative="1" as="geometry">
            <mxPoint x="490" y="425" as="sourcePoint" />
          </mxGeometry>
        </mxCell>
        <mxCell id="vXhFPMX_ZpGUBwA_U3QO-39" value="" style="ellipse;whiteSpace=wrap;html=1;align=center;aspect=fixed;resizable=0;points=[];outlineConnect=0;sketch=0;" vertex="1" parent="1">
          <mxGeometry x="540" y="240" width="10" height="10" as="geometry" />
        </mxCell>
        <mxCell id="vXhFPMX_ZpGUBwA_U3QO-40" value="verify(token)" style="text;strokeColor=none;align=center;fillColor=none;html=1;verticalAlign=middle;whiteSpace=wrap;rounded=0;" vertex="1" parent="1">
          <mxGeometry x="460" y="210" width="110" height="30" as="geometry" />
        </mxCell>
        <mxCell id="vXhFPMX_ZpGUBwA_U3QO-41" value="«DB»&lt;br&gt;&lt;b&gt;Component&lt;/b&gt;" style="html=1;dropTarget=0;whiteSpace=wrap;" vertex="1" parent="1">
          <mxGeometry x="740" y="200" width="180" height="90" as="geometry" />
        </mxCell>
        <mxCell id="vXhFPMX_ZpGUBwA_U3QO-42" value="" style="shape=module;jettyWidth=8;jettyHeight=4;" vertex="1" parent="vXhFPMX_ZpGUBwA_U3QO-41">
          <mxGeometry x="1" width="20" height="20" relative="1" as="geometry">
            <mxPoint x="-27" y="7" as="offset" />
          </mxGeometry>
        </mxCell>
        <mxCell id="vXhFPMX_ZpGUBwA_U3QO-43" value="" style="rounded=0;orthogonalLoop=1;jettySize=auto;html=1;endArrow=none;endFill=0;sketch=0;sourcePerimeterSpacing=0;targetPerimeterSpacing=0;exitX=0;exitY=0.5;exitDx=0;exitDy=0;" edge="1" target="vXhFPMX_ZpGUBwA_U3QO-45" parent="1" source="vXhFPMX_ZpGUBwA_U3QO-41">
          <mxGeometry relative="1" as="geometry">
            <mxPoint x="450" y="425" as="sourcePoint" />
          </mxGeometry>
        </mxCell>
        <mxCell id="vXhFPMX_ZpGUBwA_U3QO-44" value="" style="rounded=0;orthogonalLoop=1;jettySize=auto;html=1;endArrow=halfCircle;endFill=0;entryX=0.5;entryY=0.5;endSize=6;strokeWidth=1;sketch=0;exitX=0.75;exitY=0;exitDx=0;exitDy=0;" edge="1" target="vXhFPMX_ZpGUBwA_U3QO-45" parent="1" source="vXhFPMX_ZpGUBwA_U3QO-29">
          <mxGeometry relative="1" as="geometry">
            <mxPoint x="490" y="425" as="sourcePoint" />
          </mxGeometry>
        </mxCell>
        <mxCell id="vXhFPMX_ZpGUBwA_U3QO-45" value="" style="ellipse;whiteSpace=wrap;html=1;align=center;aspect=fixed;resizable=0;points=[];outlineConnect=0;sketch=0;" vertex="1" parent="1">
          <mxGeometry x="640" y="270" width="10" height="10" as="geometry" />
        </mxCell>
        <mxCell id="vXhFPMX_ZpGUBwA_U3QO-46" value="dbOperation()" style="text;strokeColor=none;align=center;fillColor=none;html=1;verticalAlign=middle;whiteSpace=wrap;rounded=0;" vertex="1" parent="1">
          <mxGeometry x="615" y="240" width="60" height="30" as="geometry" />
        </mxCell>
      </root>
    </mxGraphModel>
  </diagram>
</mxfile>
